<svg width="2502" height="1162" viewBox="0 0 2502 1162" fill="none" xmlns="http://www.w3.org/2000/svg">
<path d="M657.604 217.674H910.724V264.795H811.061V530.424H756.433V264.795H657.188L657.604 217.674ZM899.882 303.993H946.586V347.778H947.42C949.088 341.523 952.007 335.685 956.177 329.847C960.347 324.009 965.351 318.588 971.606 314.001C977.444 308.997 984.116 305.244 991.622 302.325C998.711 299.406 1006.22 297.738 1013.72 297.738C1019.56 297.738 1023.73 298.155 1025.82 298.155C1027.9 298.572 1030.4 298.989 1032.49 298.989V346.944C1029.15 346.11 1025.4 345.693 1021.65 345.276C1017.89 344.859 1014.56 344.442 1010.8 344.442C1002.46 344.442 994.541 346.11 987.035 349.446C979.529 352.782 973.274 357.786 967.436 364.041C962.015 370.713 957.428 378.636 954.092 388.227C950.756 397.818 949.088 409.077 949.088 421.587V529.173H899.048L899.882 303.993ZM1261.84 530.424H1212.63V498.732H1211.8C1205.54 510.408 1196.37 519.165 1184.28 526.254C1172.18 533.343 1159.67 536.679 1147.16 536.679C1117.56 536.679 1095.87 529.59 1082.53 514.578C1069.18 499.983 1062.51 477.465 1062.51 447.858V303.993H1112.55V442.854C1112.55 462.87 1116.3 477.048 1124.23 484.971C1131.73 493.311 1142.58 497.481 1156.34 497.481C1166.76 497.481 1175.52 495.813 1182.61 492.477C1189.7 489.141 1195.53 484.971 1199.7 479.55C1204.29 474.129 1207.21 467.457 1209.3 459.951C1211.38 452.445 1212.21 444.105 1212.21 435.348V303.993H1262.25V530.424H1261.84ZM1346.91 457.866C1348.57 472.461 1353.99 482.469 1363.59 488.724C1373.18 494.562 1384.85 497.481 1398.2 497.481C1402.78 497.481 1408.2 497.064 1414.04 496.23C1419.88 495.396 1425.72 494.145 1430.72 492.06C1436.14 489.975 1440.31 487.056 1443.65 482.886C1446.99 478.716 1448.65 473.712 1448.24 467.457C1447.82 461.202 1445.73 455.781 1441.15 451.611C1436.56 447.441 1431.14 444.522 1424.47 441.603C1417.8 439.101 1409.87 437.016 1401.12 435.348C1392.36 433.68 1383.6 431.595 1374.43 429.51C1365.25 427.425 1356.08 424.923 1347.32 422.004C1338.57 419.085 1331.06 415.332 1323.97 409.911C1317.3 404.907 1311.46 398.652 1307.71 390.729C1303.54 382.806 1301.45 373.632 1301.45 361.956C1301.45 349.446 1304.37 339.438 1310.63 331.098C1316.46 322.758 1324.39 316.086 1333.56 311.082C1342.74 306.078 1353.16 302.325 1364.42 300.24C1375.68 298.155 1386.52 297.321 1396.53 297.321C1408.2 297.321 1419.46 298.572 1429.89 301.074C1440.31 303.576 1450.32 307.329 1458.66 313.167C1467.42 318.588 1474.51 326.094 1479.93 334.851C1485.77 343.608 1489.1 354.45 1490.77 366.96H1438.65C1436.14 354.867 1430.72 346.944 1422.38 342.774C1413.63 338.604 1404.03 336.519 1392.78 336.519C1389.44 336.519 1384.85 336.936 1380.27 337.353C1375.26 338.187 1371.09 339.021 1366.5 340.689C1362.33 342.357 1358.58 344.859 1355.66 347.778C1352.74 350.697 1351.08 354.867 1351.08 359.871C1351.08 366.126 1353.16 370.713 1357.33 374.466C1361.5 378.219 1366.92 381.138 1374.01 384.057C1380.68 386.559 1388.61 388.644 1397.36 390.312C1406.12 391.98 1415.29 394.065 1424.47 396.15C1433.64 398.235 1442.4 400.737 1451.16 403.656C1459.91 406.575 1467.84 410.328 1474.51 415.749C1481.18 420.753 1487.02 427.008 1491.19 434.514C1495.36 442.02 1497.44 451.611 1497.44 462.453C1497.44 475.797 1494.52 487.056 1488.27 496.647C1482.01 505.821 1474.09 513.744 1464.5 519.582C1454.91 525.42 1443.65 529.59 1431.97 532.509C1419.88 535.011 1408.2 536.679 1396.53 536.679C1382.35 536.679 1369.01 535.011 1356.91 531.675C1344.82 528.339 1333.98 523.335 1325.22 517.08C1316.46 510.408 1309.38 502.485 1304.37 492.477C1299.37 482.886 1296.45 471.21 1296.03 457.449H1346.49V457.866H1346.91ZM1511.62 303.993H1549.57V235.605H1599.61V303.576H1644.64V340.689H1599.61V461.619C1599.61 467.04 1600.02 471.21 1600.44 475.38C1600.86 479.133 1602.11 482.469 1603.36 484.971C1605.03 487.473 1607.53 489.558 1610.45 490.809C1613.79 492.06 1617.96 492.894 1623.79 492.894C1627.13 492.894 1630.88 492.894 1634.22 492.477C1637.55 492.06 1641.31 491.643 1644.64 490.809V529.59C1639.22 530.424 1633.8 530.841 1628.38 531.258C1622.96 532.092 1617.96 532.092 1612.12 532.092C1598.77 532.092 1588.35 530.841 1580.43 528.339C1572.5 525.837 1566.25 522.084 1561.66 517.497C1557.07 512.493 1554.15 506.655 1552.49 499.566C1550.82 492.477 1549.98 483.72 1549.57 474.546V341.106H1511.62V303.159V303.993ZM1679.67 303.993H1726.79V334.851H1727.63C1734.72 321.507 1744.31 312.333 1756.82 306.495C1769.33 300.657 1782.67 297.738 1797.68 297.738C1815.61 297.738 1831.04 300.657 1844.39 307.329C1857.73 313.584 1868.57 321.924 1877.33 333.183C1886.09 344.025 1892.76 356.952 1896.93 371.547C1901.1 386.142 1903.6 401.988 1903.6 418.251C1903.6 433.68 1901.52 448.275 1897.76 462.453C1893.59 476.631 1887.75 489.558 1879.83 500.4C1871.91 511.242 1861.9 519.999 1849.39 526.671C1836.88 533.343 1822.7 536.679 1806.02 536.679C1798.93 536.679 1791.43 535.845 1784.34 534.594C1777.25 533.343 1770.16 531.258 1763.49 528.339C1756.82 525.42 1750.56 521.667 1745.14 517.08C1739.3 512.493 1734.72 507.072 1730.96 501.234H1730.13V614.241H1680.09V303.993H1679.67ZM1854.39 417.417C1854.39 407.409 1853.14 397.401 1850.22 387.81C1847.72 378.219 1843.55 369.879 1838.13 362.373C1832.71 354.867 1826.04 349.029 1818.53 344.442C1810.61 339.855 1801.44 337.77 1791.43 337.77C1770.58 337.77 1754.73 344.859 1743.89 359.454C1733.46 374.049 1728.04 393.648 1728.04 417.834C1728.04 429.51 1729.29 439.935 1732.21 449.526C1735.13 459.117 1738.89 467.457 1744.72 474.546C1750.14 481.635 1756.82 487.056 1764.74 491.226C1772.66 495.396 1781.42 497.481 1791.84 497.481C1803.52 497.481 1812.69 494.979 1820.62 490.392C1828.54 485.805 1834.8 479.55 1840.22 472.461C1845.22 464.955 1848.97 456.615 1851.06 447.024C1853.14 437.016 1854.39 427.425 1854.39 417.417ZM1942.38 217.674H1992.42V264.795H1942.38V217.674ZM1942.38 303.993H1992.42V530.424H1942.38V303.993ZM2037.04 217.674H2087.08V530.424H2037.04V217.674ZM2239.7 536.679C2221.77 536.679 2205.51 533.76 2191.33 527.505C2177.15 521.25 2165.48 513.327 2155.47 502.902C2145.88 492.477 2138.37 479.55 2133.37 464.955C2128.36 450.36 2125.45 434.097 2125.45 417C2125.45 399.903 2127.95 384.057 2133.37 369.462C2138.37 354.867 2145.88 342.357 2155.47 331.515C2165.06 321.09 2177.15 312.75 2191.33 306.912C2205.51 301.074 2221.77 297.738 2239.7 297.738C2257.63 297.738 2273.9 300.657 2288.08 306.912C2302.25 312.75 2313.93 321.09 2323.94 331.515C2333.53 341.94 2341.03 354.867 2346.04 369.462C2351.04 384.057 2353.96 399.903 2353.96 417C2353.96 434.514 2351.46 450.36 2346.04 464.955C2340.62 479.55 2333.53 492.06 2323.94 502.902C2314.35 513.327 2302.25 521.667 2288.08 527.505C2273.9 533.343 2258.05 536.679 2239.7 536.679ZM2239.7 497.064C2250.54 497.064 2260.55 494.562 2268.48 489.975C2276.82 485.388 2283.07 479.133 2288.49 471.627C2293.91 464.121 2297.67 455.364 2300.17 446.19C2302.67 436.599 2303.92 427.008 2303.92 417C2303.92 407.409 2302.67 397.818 2300.17 388.227C2297.67 378.636 2293.91 370.296 2288.49 362.79C2283.07 355.284 2276.4 349.446 2268.48 344.859C2260.14 340.272 2250.54 337.77 2239.7 337.77C2228.86 337.77 2218.85 340.272 2210.93 344.859C2202.59 349.446 2196.34 355.701 2190.91 362.79C2185.49 370.296 2181.74 378.636 2179.24 388.227C2176.74 397.818 2175.49 407.409 2175.49 417C2175.49 427.008 2176.74 436.599 2179.24 446.19C2181.74 455.781 2185.49 464.121 2190.91 471.627C2196.34 479.133 2203.01 485.388 2210.93 489.975C2219.27 494.979 2228.86 497.064 2239.7 497.064ZM2368.97 303.993H2406.92V235.605H2456.96V303.576H2502V340.689H2456.96V461.619C2456.96 467.04 2457.38 471.21 2457.79 475.38C2458.21 479.133 2459.46 482.469 2460.71 484.971C2462.38 487.473 2464.88 489.558 2467.8 490.809C2471.14 492.06 2475.31 492.894 2481.15 492.894C2484.48 492.894 2488.24 492.894 2491.57 492.477C2494.91 492.06 2498.66 491.643 2502 490.809V529.59C2496.58 530.424 2491.15 530.841 2485.73 531.258C2480.31 532.092 2475.31 532.092 2469.47 532.092C2456.13 532.092 2445.7 530.841 2437.78 528.339C2429.86 525.837 2423.6 522.084 2419.01 517.497C2414.43 512.493 2411.51 506.655 2409.84 499.566C2408.17 492.477 2407.34 483.72 2406.92 474.546V341.106H2368.97V303.159V303.993Z" fill="white"/>
<path d="M599.229 217.674H370.296L299.823 0L228.933 217.674L0 217.257L185.148 351.948L114.258 569.622L299.406 434.931L484.554 569.622L414.081 351.948L599.229 217.674Z" fill="#00B67A"/>
<path d="M429.92 401.153L414.074 351.947L299.816 434.93L429.92 401.153Z" fill="#005128"/>
<path d="M0 694.24H469.125V1161.99H0V694.24ZM508.219 694.24H977.344V1161.99H508.219V694.24ZM1016.44 694.24H1485.56V1161.99H1016.44V694.24ZM1524.66 694.24H1993.78V1161.99H1524.66V694.24ZM2032.88 694.24H2502V1161.99H2032.88V694.24Z" fill="#00B67A"/>
<path d="M234.561 1009.48L305.907 991.457L335.716 1083.06L234.561 1009.48ZM398.755 891.086H273.166L234.561 773.174L195.956 891.086H70.3672L172.011 964.172L133.406 1082.08L235.05 1009L297.6 964.172L398.755 891.086ZM742.78 1009.48L814.126 991.457L843.935 1083.06L742.78 1009.48ZM906.974 891.086H781.385L742.78 773.174L704.175 891.086H578.586L680.23 964.172L641.625 1082.08L743.268 1009L805.818 964.172L906.974 891.086ZM1251 1009.48L1322.34 991.457L1352.15 1083.06L1251 1009.48ZM1415.19 891.086H1289.6L1251 773.174L1212.39 891.086H1086.8L1188.45 964.172L1149.84 1082.08L1251.49 1009L1314.04 964.172L1415.19 891.086ZM1759.22 1009.48L1830.56 991.457L1860.37 1083.06L1759.22 1009.48ZM1923.41 891.086H1797.82L1759.22 773.174L1720.61 891.086H1595.02L1696.67 964.172L1658.06 1082.08L1759.71 1009L1822.26 964.172L1923.41 891.086ZM2267.44 1009.48L2338.78 991.457L2368.59 1083.06L2267.44 1009.48ZM2431.63 891.086H2306.04L2267.44 773.174L2228.83 891.086H2103.24L2204.89 964.172L2166.28 1082.08L2267.92 1009L2330.47 964.172L2431.63 891.086Z" fill="white"/>
</svg>
