<svg width="100" height="100" viewBox="0 0 100 100" fill="none" xmlns="http://www.w3.org/2000/svg">
	<path fill-rule="evenodd" clip-rule="evenodd" d="M0 0H50H100V100H50H0V0Z"
		fill="url(#paint0_linear_1313_2840)" />
	<path
		d="M100 87.6556L62.379 50L100 12.3444V0H87.621L50 37.6556L12.379 0H0V12.3444L37.621 50L0 87.6556V100H12.379L50 62.3444L87.621 100H100V87.6556Z"
		fill="url(#paint1_linear_1313_2840)" />
	<path
		d="M100 95.3319L54.6335 50L100 4.66805V0H95.3665L50 45.3319L4.63347 0H0V4.66805L45.3665 50L0 95.3319V100H4.63347L50 54.668L95.3665 100H100V95.3319Z"
		fill="url(#paint2_linear_1313_2840)" />
	<path fill-rule="evenodd" clip-rule="evenodd"
		d="M41.7704 0H50H58.2988V33.5062H100V66.4938H58.2988V100H50H41.7704V66.4938H0V33.5062H41.7704V0Z"
		fill="url(#paint3_linear_1313_2840)" />
	<path fill-rule="evenodd" clip-rule="evenodd"
		d="M55.1867 0V39.7303H100V60.2697H55.1867V100H50H44.8824V60.2697H0V39.7303H44.8824V0H50H55.1867Z"
		fill="url(#paint4_linear_1313_2840)" />
	<defs>
		<linearGradient id="paint0_linear_1313_2840" x1="147.8" y1="81.1867" x2="-52.574"
			y2="52.7929" gradientUnits="userSpaceOnUse">
			<stop stop-color="#1C2241" />
			<stop offset="0.59" stop-color="#1E4999" />
			<stop offset="1" stop-color="#1C2241" />
		</linearGradient>
		<linearGradient id="paint1_linear_1313_2840" x1="198.888" y1="-35.7173" x2="-121.737"
			y2="46.3337" gradientUnits="userSpaceOnUse">
			<stop stop-color="#F6F4F3" />
			<stop offset="0.45" stop-color="#F6F4F3" />
			<stop offset="0.8" stop-color="#F6F4F3" />
			<stop offset="1" stop-color="#F6F4F3" />
		</linearGradient>
		<linearGradient id="paint2_linear_1313_2840" x1="-123.1" y1="-93.9256" x2="275.126"
			y2="53.2345" gradientUnits="userSpaceOnUse">
			<stop stop-color="#E12126" />
			<stop offset="0.24" stop-color="#E12126" />
			<stop offset="0.53" stop-color="#E52628" />
			<stop offset="0.76" stop-color="#B82024" />
			<stop offset="1" stop-color="#E12126" />
		</linearGradient>
		<linearGradient id="paint3_linear_1313_2840" x1="191.575" y1="-31.5065" x2="-113.302"
			y2="46.5142" gradientUnits="userSpaceOnUse">
			<stop stop-color="#F6F4F3" />
			<stop offset="0.45" stop-color="#F6F4F3" />
			<stop offset="0.8" stop-color="#F6F4F3" />
			<stop offset="1" stop-color="#F6F4F3" />
		</linearGradient>
		<linearGradient id="paint4_linear_1313_2840" x1="-237.594" y1="-189.124" x2="423.991"
			y2="55.3581" gradientUnits="userSpaceOnUse">
			<stop stop-color="#E12126" />
			<stop offset="0.24" stop-color="#E12126" />
			<stop offset="0.53" stop-color="#E52628" />
			<stop offset="0.76" stop-color="#B82024" />
			<stop offset="1" stop-color="#E12126" />
		</linearGradient>
	</defs>
</svg>